<svg width="45" height="45" viewBox="0 0 45 45" fill="none" xmlns="http://www.w3.org/2000/svg">
<path d="M22.5 45C19.4531 45 16.5381 44.4067 13.7549 43.2202C10.9717 42.0337 8.57666 40.437 6.56982 38.4302C4.56299 36.4233 2.96631 34.0283 1.77979 31.2451C0.593262 28.4619 0 25.5469 0 22.5C0 19.4531 0.593262 16.5381 1.77979 13.7549C2.96631 10.9717 4.56299 8.57666 6.56982 6.56982C8.57666 4.56299 10.9717 2.96631 13.7549 1.77979C16.5381 0.593262 19.4531 0 22.5 0C25.5469 0 28.4619 0.593262 31.2451 1.77979C34.0283 2.96631 36.4233 4.56299 38.4302 6.56982C40.437 8.57666 42.0337 10.9717 43.2202 13.7549C44.4067 16.5381 45 19.4531 45 22.5C45 25.5469 44.4067 28.4619 43.2202 31.2451C42.0337 34.0283 40.437 36.4233 38.4302 38.4302C36.4233 40.437 34.0283 42.0337 31.2451 43.2202C28.4619 44.4067 25.5469 45 22.5 45ZM12.876 12.876L10.7666 11.0303C10.4443 11.0303 10.0635 11.0669 9.62402 11.1401C9.18457 11.2134 8.78906 11.25 8.4375 11.25C8.4082 11.2207 8.14453 10.6787 7.64648 9.62402C4.42383 13.3447 2.8125 17.6367 2.8125 22.5C2.8125 22.5879 2.81982 22.7051 2.83447 22.8516C2.84912 22.998 2.85645 23.1006 2.85645 23.1592C3.03223 23.335 3.46436 23.6646 4.15283 24.1479C4.84131 24.6313 5.33203 25.0195 5.625 25.3125H8.4375C8.52539 25.2539 8.60596 25.21 8.6792 25.1807C8.75244 25.1514 8.83301 25.1221 8.9209 25.0928C8.62793 24.7705 8.1958 24.2944 7.62451 23.6646C7.05322 23.0347 6.62109 22.5732 6.32812 22.2803C6.44531 21.6064 6.60645 20.5884 6.81152 19.2261C7.0166 17.8638 7.16309 16.8457 7.25098 16.1719C9.77051 15.1172 11.6455 14.3408 12.876 13.8428V12.876ZM21.709 5.71289C21.2988 5.53711 20.918 5.37598 20.5664 5.22949C20.4785 4.99512 20.4199 4.81934 20.3906 4.70215C20.2148 5.25879 19.9365 6.09375 19.5557 7.20703C19.6729 7.23633 19.8413 7.26562 20.061 7.29492C20.2808 7.32422 20.4492 7.35352 20.5664 7.38281H21.709V5.71289ZM21.5332 26.4111C21.3867 26.5576 21.2842 26.6748 21.2256 26.7627C20.874 27.3779 20.376 28.3154 19.7314 29.5752C19.0869 30.835 18.6035 31.7725 18.2812 32.3877C18.6914 33.0029 19.314 33.9404 20.1489 35.2002C20.9839 36.46 21.6064 37.3975 22.0166 38.0127C25.8252 38.2471 28.7109 38.4229 30.6738 38.54C30.7324 39.2725 30.9668 39.7705 31.377 40.0342C34.043 38.6865 36.2988 36.8188 38.1445 34.4312C39.9902 32.0435 41.2061 29.3701 41.792 26.4111C41.2354 26.2939 40.6274 26.1328 39.9683 25.9277C39.3091 25.7227 38.833 25.5835 38.54 25.5103C38.2471 25.437 37.6685 25.3638 36.8042 25.2905C35.9399 25.2173 35.0391 25.2686 34.1016 25.4443C33.75 25.4736 33.5229 25.2466 33.4204 24.7632C33.3179 24.2798 33.2666 23.7817 33.2666 23.269C33.2666 22.7563 33.208 22.4854 33.0908 22.4561C32.4463 22.3389 31.1426 22.4487 29.1797 22.7856C27.2168 23.1226 25.9131 23.2324 25.2686 23.1152C24.8877 23.4668 23.6426 24.5654 21.5332 26.4111ZM24.126 4.39453C24.0381 4.98047 23.8843 5.85938 23.6646 7.03125C23.4448 8.20312 23.2764 9.09668 23.1592 9.71191C23.3057 9.68262 23.5474 9.646 23.8843 9.60205C24.2212 9.55811 24.4629 9.53613 24.6094 9.53613C24.5215 9.47754 24.4189 9.41895 24.3018 9.36035C24.7412 9.21387 25.0635 9.09668 25.2686 9.00879C24.7705 6.95801 24.3896 5.41992 24.126 4.39453ZM29.2236 3.99902C29.165 4.32129 29.1357 4.77539 29.1357 5.36133C29.1357 5.94727 28.9893 6.72363 28.6963 7.69043C28.7256 7.74902 28.7842 7.80762 28.8721 7.86621C29.458 7.80762 30.4395 7.70508 31.8164 7.55859C31.8164 6.94336 32.124 6.32812 32.7393 5.71289C31.626 5.03906 30.4541 4.46777 29.2236 3.99902ZM34.7168 7.0752C34.6582 7.19238 34.5557 7.35352 34.4092 7.55859C34.9658 7.64648 35.332 7.71973 35.5078 7.77832C35.1562 7.45605 34.8926 7.22168 34.7168 7.0752ZM35.9033 8.12988C35.8154 8.30566 35.6763 8.56934 35.4858 8.9209C35.2954 9.27246 35.1562 9.53613 35.0684 9.71191C34.2188 9.74121 33.0762 9.78516 31.6406 9.84375L31.4648 8.34961C31.4062 8.37891 31.3037 8.41553 31.1572 8.45947C31.0107 8.50342 30.8936 8.52539 30.8057 8.52539V10.6787C30.1904 10.7373 29.2456 10.8252 27.9712 10.9424C26.6968 11.0596 25.752 11.1475 25.1367 11.2061C24.9316 11.499 24.7119 11.8213 24.4775 12.1729C25.2686 13.8721 25.8691 15.1465 26.2793 15.9961C25.6934 16.1426 24.4922 16.4648 22.6758 16.9629V18.457C22.6758 18.5156 22.6978 18.6035 22.7417 18.7207C22.7856 18.8379 22.8223 18.9258 22.8516 18.9844C23.3496 19.2188 24.126 19.5703 25.1807 20.0391C26.2354 20.5078 27.0264 20.874 27.5537 21.1377L28.5205 19.9512C28.4912 19.6582 28.418 19.1968 28.3008 18.5669C28.1836 17.937 28.0957 17.4609 28.0371 17.1387C28.125 17.0801 28.2642 16.9995 28.4546 16.897C28.645 16.7944 28.7842 16.7139 28.8721 16.6553C29.6631 16.4209 30.2637 16.2598 30.6738 16.1719C31.0547 16.7871 31.5894 17.666 32.2778 18.8086C32.9663 19.9512 33.3984 20.6689 33.5742 20.9619C33.8379 20.7275 34.2041 20.3687 34.6729 19.8853C35.1416 19.4019 35.4932 19.043 35.7275 18.8086C34.1455 17.6953 33.1055 16.9775 32.6074 16.6553C32.6367 16.4209 32.6953 16.084 32.7832 15.6445H34.4092C36.0498 17.0508 37.7344 18.4863 39.4629 19.9512C39.4922 19.9512 39.5215 19.9292 39.5508 19.8853C39.5801 19.8413 39.6094 19.8193 39.6387 19.8193C39.5215 19.585 39.1406 18.8672 38.4961 17.666C38.4961 17.6367 38.54 17.5781 38.6279 17.4902L38.8037 17.3145H40.6055C40.6348 17.2852 40.8838 17.1533 41.3525 16.9189C40.3564 13.5205 38.54 10.5908 35.9033 8.12988Z" fill="white"/>
</svg>
