<svg width="45" height="41" viewBox="0 0 45 41" fill="none" xmlns="http://www.w3.org/2000/svg">
<path d="M0 41H8.18182V16.4H0V41ZM45 18.45C45 16.195 43.1591 14.35 40.9091 14.35H28.0023L29.9455 4.9815L30.0068 4.3255C30.0068 3.485 29.6591 2.706 29.1068 2.1525L26.9386 0L13.4795 13.5095C12.7227 14.2475 12.2727 15.2725 12.2727 16.4V36.9C12.2727 39.155 14.1136 41 16.3636 41H34.7727C36.4705 41 37.9227 39.975 38.5364 38.499L44.7136 24.0465C44.8977 23.575 45 23.083 45 22.55V18.45Z" fill="white"/>
</svg>
