<svg width="208" height="83" viewBox="0 0 208 83" fill="none" xmlns="http://www.w3.org/2000/svg">
<path d="M37.2574 4.24264C39.6005 1.8995 43.3995 1.8995 45.7426 4.24264L78.7574 37.2574C81.1005 39.6005 81.1005 43.3995 78.7574 45.7426L45.7426 78.7574C43.3995 81.1005 39.6005 81.1005 37.2574 78.7574L4.24264 45.7426C1.8995 43.3995 1.8995 39.6005 4.24264 37.2574L37.2574 4.24264Z" fill="#2C2D32"/>
<path d="M120.257 4.24264C122.601 1.8995 126.399 1.8995 128.743 4.24264L161.757 37.2574C164.101 39.6005 164.101 43.3995 161.757 45.7426L128.743 78.7574C126.399 81.1005 122.601 81.1005 120.257 78.7574L87.2426 45.7426C84.8995 43.3995 84.8995 39.6005 87.2426 37.2574L120.257 4.24264Z" fill="#2C2D32"/>
<path d="M79.2574 4.24264C81.6005 1.8995 85.3995 1.8995 87.7426 4.24264L120.757 37.2574C123.101 39.6005 123.101 43.3995 120.757 45.7426L87.7426 78.7574C85.3995 81.1005 81.6005 81.1005 79.2574 78.7574L46.2426 45.7426C43.8995 43.3995 43.8995 39.6005 46.2426 37.2574L79.2574 4.24264Z" fill="#2C2D32"/>
<path d="M162.257 4.24264C164.601 1.8995 168.399 1.8995 170.743 4.24264L203.757 37.2574C206.101 39.6005 206.101 43.3995 203.757 45.7426L170.743 78.7574C168.399 81.1005 164.601 81.1005 162.257 78.7574L129.243 45.7426C126.899 43.3995 126.899 39.6005 129.243 37.2574L162.257 4.24264Z" fill="#2C2D32"/>
<path d="M37.144 29.536V33.92H31.192V52H25.72V33.92H19.768V29.536H37.144ZM46.6423 37.12C47.2823 36.1387 48.0823 35.3707 49.0423 34.816C50.0023 34.24 51.0689 33.952 52.2423 33.952V39.744H50.7383C49.3729 39.744 48.3489 40.0427 47.6663 40.64C46.9836 41.216 46.6423 42.24 46.6423 43.712V52H41.1703V34.144H46.6423V37.12ZM55.0498 43.04C55.0498 41.2053 55.3911 39.5947 56.0738 38.208C56.7778 36.8213 57.7271 35.7547 58.9218 35.008C60.1164 34.2613 61.4498 33.888 62.9218 33.888C64.1804 33.888 65.2791 34.144 66.2178 34.656C67.1778 35.168 67.9138 35.84 68.4258 36.672V34.144H73.8978V52H68.4258V49.472C67.8924 50.304 67.1458 50.976 66.1858 51.488C65.2471 52 64.1484 52.256 62.8898 52.256C61.4391 52.256 60.1164 51.8827 58.9218 51.136C57.7271 50.368 56.7778 49.2907 56.0738 47.904C55.3911 46.496 55.0498 44.8747 55.0498 43.04ZM68.4258 43.072C68.4258 41.7067 68.0418 40.6293 67.2738 39.84C66.5271 39.0507 65.6098 38.656 64.5218 38.656C63.4338 38.656 62.5058 39.0507 61.7378 39.84C60.9911 40.608 60.6178 41.6747 60.6178 43.04C60.6178 44.4053 60.9911 45.4933 61.7378 46.304C62.5058 47.0933 63.4338 47.488 64.5218 47.488C65.6098 47.488 66.5271 47.0933 67.2738 46.304C68.0418 45.5147 68.4258 44.4373 68.4258 43.072ZM87.1685 46.88L91.0405 34.144H96.8645L90.5285 52H83.7765L77.4405 34.144H83.2965L87.1685 46.88ZM117.28 42.784C117.28 43.296 117.248 43.8293 117.184 44.384H104.8C104.885 45.4933 105.237 46.3467 105.856 46.944C106.496 47.52 107.274 47.808 108.192 47.808C109.557 47.808 110.506 47.232 111.04 46.08H116.864C116.565 47.2533 116.021 48.3093 115.232 49.248C114.464 50.1867 113.493 50.9227 112.32 51.456C111.146 51.9893 109.834 52.256 108.384 52.256C106.634 52.256 105.077 51.8827 103.712 51.136C102.346 50.3893 101.28 49.3227 100.512 47.936C99.7438 46.5493 99.3598 44.928 99.3598 43.072C99.3598 41.216 99.7331 39.5947 100.48 38.208C101.248 36.8213 102.314 35.7547 103.68 35.008C105.045 34.2613 106.613 33.888 108.384 33.888C110.112 33.888 111.648 34.2507 112.992 34.976C114.336 35.7013 115.381 36.736 116.128 38.08C116.896 39.424 117.28 40.992 117.28 42.784ZM111.68 41.344C111.68 40.4053 111.36 39.6587 110.72 39.104C110.08 38.5493 109.28 38.272 108.32 38.272C107.402 38.272 106.624 38.5387 105.984 39.072C105.365 39.6053 104.981 40.3627 104.832 41.344H111.68ZM126.919 28.32V52H121.447V28.32H126.919ZM137.636 28.32V52H132.164V28.32H137.636ZM145.633 32.288C144.673 32.288 143.884 32.0107 143.265 31.456C142.668 30.88 142.369 30.176 142.369 29.344C142.369 28.4907 142.668 27.7867 143.265 27.232C143.884 26.656 144.673 26.368 145.633 26.368C146.572 26.368 147.34 26.656 147.937 27.232C148.556 27.7867 148.865 28.4907 148.865 29.344C148.865 30.176 148.556 30.88 147.937 31.456C147.34 32.0107 146.572 32.288 145.633 32.288ZM148.353 34.144V52H142.881V34.144H148.353ZM164.479 33.952C166.57 33.952 168.234 34.6347 169.471 36C170.73 37.344 171.359 39.2 171.359 41.568V52H165.919V42.304C165.919 41.1093 165.61 40.1813 164.991 39.52C164.372 38.8587 163.54 38.528 162.495 38.528C161.45 38.528 160.618 38.8587 159.999 39.52C159.38 40.1813 159.071 41.1093 159.071 42.304V52H153.599V34.144H159.071V36.512C159.626 35.7227 160.372 35.104 161.311 34.656C162.25 34.1867 163.306 33.952 164.479 33.952ZM193.274 42.784C193.274 43.296 193.242 43.8293 193.178 44.384H180.794C180.879 45.4933 181.231 46.3467 181.85 46.944C182.49 47.52 183.268 47.808 184.186 47.808C185.551 47.808 186.5 47.232 187.034 46.08H192.858C192.559 47.2533 192.015 48.3093 191.226 49.248C190.458 50.1867 189.487 50.9227 188.314 51.456C187.14 51.9893 185.828 52.256 184.378 52.256C182.628 52.256 181.071 51.8827 179.706 51.136C178.34 50.3893 177.274 49.3227 176.506 47.936C175.738 46.5493 175.354 44.928 175.354 43.072C175.354 41.216 175.727 39.5947 176.474 38.208C177.242 36.8213 178.308 35.7547 179.674 35.008C181.039 34.2613 182.607 33.888 184.378 33.888C186.106 33.888 187.642 34.2507 188.986 34.976C190.33 35.7013 191.375 36.736 192.122 38.08C192.89 39.424 193.274 40.992 193.274 42.784ZM187.674 41.344C187.674 40.4053 187.354 39.6587 186.714 39.104C186.074 38.5493 185.274 38.272 184.314 38.272C183.396 38.272 182.618 38.5387 181.978 39.072C181.359 39.6053 180.975 40.3627 180.826 41.344H187.674Z" fill="white"/>
</svg>
