<svg width="43" height="41" viewBox="0 0 43 41" fill="none" xmlns="http://www.w3.org/2000/svg">
<path d="M41.6102 14.4373L28.7196 12.5667L22.9572 0.902347C22.7998 0.582984 22.5409 0.324451 22.221 0.167304C21.4189 -0.228098 20.4441 0.101404 20.043 0.902347L14.2806 12.5667L1.39001 14.4373C1.03462 14.488 0.709689 14.6552 0.460914 14.9087C0.16016 15.2174 -0.00556903 15.6326 0.000142898 16.0632C0.00585483 16.4938 0.182541 16.9045 0.491376 17.2051L9.81787 26.2841L7.61444 39.1043C7.56277 39.4025 7.59582 39.7092 7.70985 39.9896C7.82388 40.2701 8.01431 40.513 8.25957 40.6908C8.50483 40.8687 8.79509 40.9744 9.09744 40.9959C9.39979 41.0174 9.70213 40.9539 9.97018 40.8126L21.5001 34.7599L33.03 40.8126C33.3448 40.9799 33.7103 41.0357 34.0607 40.9748C34.9441 40.8228 35.5381 39.9863 35.3858 39.1043L33.1823 26.2841L42.5088 17.2051C42.7627 16.9567 42.9302 16.6323 42.981 16.2774C43.1181 15.3903 42.4987 14.5691 41.6102 14.4373Z" fill="white"/>
</svg>
