<svg aria-hidden="true" style="position:absolute;width:0;height:0;overflow:hidden" xmlns="http://www.w3.org/2000/svg">
  <defs>
    <symbol id="icon-main-logo" viewBox="0 0 32 32">
      <path d="M14.281.908a2.43 2.43 0 0 1 3.437 0l13.373 13.373a2.43 2.43 0 0 1 0 3.437L17.718 31.091a2.43 2.43 0 0 1-3.437 0L.908 17.718a2.43 2.43 0 0 1 0-3.437L14.281.908z"/>
    </symbol>
    <symbol id="icon-phone" viewBox="0 0 32 32">
      <path fill="#fff" style="fill:var(--color1, #fff)" d="M7.168.699 9.157.151c1.867-.513 3.857.317 4.658 1.938l1.588 3.229c.691 1.406.309 3.06-.95 4.089l-3.501 2.863c.214 1.713.884 3.4 2.004 5.059 1.064 1.605 2.492 3.011 4.197 4.132l4.205-1.21c1.595-.457 3.331.07 4.306 1.307l2.279 2.882c1.137 1.439.933 3.424-.477 4.643l-1.512 1.307c-1.504 1.301-3.654 1.774-5.641 1.239-4.693-1.261-9.007-5.005-12.943-11.231C3.428 14.162 2.036 8.869 3.197 4.526 3.685 2.698 5.195 1.241 7.169.698z"/>
    </symbol>
    <symbol id="icon-play-video" viewBox="0 0 32 32">
      <path fill="#23bdee" style="fill:var(--color2, #23bdee)" d="M28.086 14.64a1.143 1.143 0 0 1 0 1.959L4.018 31.074a1.143 1.143 0 0 1-1.732-.979V1.145c0-.889.97-1.438 1.732-.979l24.068 14.475z"/>
    </symbol>
    <symbol id="icon-arrow-right" viewBox="0 0 32 32">
      <path fill="#666" style="fill:var(--color3, #666)" d="M24.908 13.172a4 4 0 0 1 0 5.657l-12 12a4 4 0 0 1-5.657-5.657L16.423 16 7.251 6.828a4 4 0 0 1 5.657-5.657l12 12z"/>
    </symbol>
    <symbol id="icon-multi-rectangle" viewBox="0 0 32 32">
      <path fill="#7f2736" style="fill:var(--color4, #7f2736)" d="M2.37.593h9.266a2.37 2.37 0 0 1 2.37 2.37v9.266a2.37 2.37 0 0 1-2.37 2.37H2.37A2.37 2.37 0 0 1 0 12.229V2.963A2.37 2.37 0 0 1 2.37.593zM2.37 17.4h9.266a2.37 2.37 0 0 1 2.37 2.37v9.266a2.37 2.37 0 0 1-2.37 2.37H2.37A2.37 2.37 0 0 1 0 29.036V19.77a2.37 2.37 0 0 1 2.37-2.37zM19.879.593h9.266a2.37 2.37 0 0 1 2.37 2.37v9.266a2.37 2.37 0 0 1-2.37 2.37h-9.266a2.37 2.37 0 0 1-2.37-2.37V2.963a2.37 2.37 0 0 1 2.37-2.37z"/>
      <path fill="#2c2d32" style="fill:var(--color5, #2c2d32)" d="M19.879 17.4h9.266a2.37 2.37 0 0 1 2.37 2.37v9.266a2.37 2.37 0 0 1-2.37 2.37h-9.266a2.37 2.37 0 0 1-2.37-2.37V19.77a2.37 2.37 0 0 1 2.37-2.37z"/>
    </symbol>
    <symbol id="icon-people" viewBox="0 0 32 32">
      <path fill="#7f2736" style="fill:var(--color4, #7f2736)" d="M4.8 14.267c1.765 0 3.2-1.555 3.2-3.467S6.565 7.333 4.8 7.333c-1.765 0-3.2 1.555-3.2 3.467s1.435 3.467 3.2 3.467zm22.4 0c1.765 0 3.2-1.555 3.2-3.467s-1.435-3.467-3.2-3.467c-1.765 0-3.2 1.555-3.2 3.467s1.435 3.467 3.2 3.467zM28.8 16h-3.2c-.88 0-1.675.385-2.255 1.007 2.015 1.197 3.445 3.358 3.755 5.926h3.3c.885 0 1.6-.775 1.6-1.733v-1.733C32 17.555 30.565 16 28.8 16zM16 16c3.095 0 5.6-2.714 5.6-6.067S19.095 3.866 16 3.866s-5.6 2.714-5.6 6.067S12.905 16 16 16zm3.84 1.733h-.415c-1.04.542-2.195.867-3.425.867s-2.38-.325-3.425-.867h-.415c-3.18 0-5.76 2.795-5.76 6.24v1.56c0 1.435 1.075 2.6 2.4 2.6h14.4c1.325 0 2.4-1.165 2.4-2.6v-1.56c0-3.445-2.58-6.24-5.76-6.24zm-11.185-.726C8.075 16.384 7.28 16 6.4 16H3.2C1.435 16 0 17.555 0 19.467V21.2c0 .959.715 1.733 1.6 1.733h3.295c.315-2.567 1.745-4.729 3.76-5.926z"/>
    </symbol>
    <symbol id="icon-star" viewBox="0 0 32 32">
      <path fill="#fff" style="fill:var(--color1, #fff)" d="m30.966 11.488-9.593-1.392-4.288-8.68a1.2 1.2 0 0 0-.548-.547 1.215 1.215 0 0 0-1.621.547l-4.288 8.68-9.593 1.392a1.207 1.207 0 0 0-.668 2.06l6.941 6.756-1.64 9.541a1.207 1.207 0 0 0 1.753 1.272l8.58-4.504 8.58 4.504a1.206 1.206 0 0 0 1.753-1.271l-1.64-9.541 6.941-6.756c.189-.185.314-.426.351-.69a1.203 1.203 0 0 0-1.02-1.369z"/>
    </symbol>
    <symbol id="icon-earth" viewBox="0 0 32 32">
      <path fill="#fff" style="fill:var(--color1, #fff)" d="M16 32c-2.167 0-4.24-.422-6.219-1.266s-3.682-1.979-5.109-3.406-2.563-3.13-3.406-5.109S0 18.167 0 16c0-2.167.422-4.24 1.266-6.219s1.979-3.682 3.406-5.109 3.13-2.563 5.109-3.406S13.833 0 16 0c2.167 0 4.24.422 6.219 1.266s3.682 1.979 5.109 3.406 2.563 3.13 3.406 5.109S32 13.833 32 16c0 2.167-.422 4.24-1.266 6.219s-1.979 3.682-3.406 5.109-3.13 2.563-5.109 3.406S18.167 32 16 32zM9.156 9.156l-1.5-1.313c-.229 0-.5.026-.813.078s-.594.078-.844.078c-.021-.021-.208-.406-.563-1.156-2.292 2.646-3.438 5.698-3.438 9.156 0 .063.005.146.016.25s.016.177.016.219c.125.125.432.359.922.703s.839.62 1.047.828h2c.063-.042.12-.073.172-.094s.109-.042.172-.063l-.922-1.016a29.985 29.985 0 0 0-.922-.984c.083-.479.198-1.203.344-2.172s.25-1.693.313-2.172c1.792-.75 3.125-1.302 4-1.656v-.688zm6.282-5.093c-.292-.125-.563-.24-.813-.344a3.802 3.802 0 0 1-.125-.375c-.125.396-.323.99-.594 1.781.083.021.203.042.359.063s.276.042.359.063h.813V4.063zm-.125 14.718a1.894 1.894 0 0 0-.219.25c-.25.437-.604 1.104-1.063 2s-.802 1.563-1.031 2c.292.437.734 1.104 1.328 2s1.036 1.563 1.328 2c2.708.167 4.76.292 6.156.375.042.521.208.875.5 1.063 1.896-.958 3.5-2.287 4.812-3.984s2.177-3.599 2.594-5.703c-.396-.083-.828-.198-1.297-.344s-.807-.245-1.016-.297c-.208-.052-.62-.104-1.234-.156s-1.255-.016-1.922.109c-.25.021-.412-.141-.484-.484s-.109-.698-.109-1.063-.042-.557-.125-.578c-.458-.083-1.385-.005-2.781.234s-2.323.318-2.781.234c-.271.25-1.156 1.031-2.656 2.344zm1.843-15.656c-.063.417-.172 1.042-.328 1.875l-.359 1.906c.104-.021.276-.047.516-.078s.411-.047.516-.047a2.032 2.032 0 0 0-.219-.125c.312-.104.542-.188.688-.25a260.666 260.666 0 0 0-.813-3.281zm3.625-.281c-.042.229-.063.552-.063.969s-.104.969-.312 1.656a.36.36 0 0 0 .125.125c.417-.042 1.115-.115 2.094-.219 0-.438.219-.875.656-1.313a15.5 15.5 0 0 0-2.5-1.219zm3.907 2.187a2.93 2.93 0 0 1-.219.344c.396.063.656.115.781.156-.25-.229-.437-.396-.563-.5zm.843.75c-.063.125-.161.313-.297.563s-.234.438-.297.563c-.604.021-1.417.052-2.438.094l-.125-1.063c-.042.021-.115.047-.219.078s-.187.047-.25.047v1.531c-.438.042-1.109.104-2.016.188s-1.578.146-2.016.188c-.146.208-.302.437-.469.688.563 1.208.99 2.115 1.281 2.719-.417.104-1.271.333-2.563.688v1.062c0 .042.016.104.047.188s.057.146.078.188c.354.167.906.417 1.656.75s1.313.594 1.687.781l.688-.844c-.021-.208-.073-.536-.156-.984l-.188-1.016c.063-.042.162-.099.297-.172s.234-.13.297-.172c.563-.167.99-.281 1.281-.344.271.437.651 1.062 1.141 1.875l.922 1.531c.188-.167.448-.422.781-.766s.583-.599.75-.766a88.122 88.122 0 0 0-2.219-1.531c.021-.167.063-.406.125-.719h1.156c1.167 1 2.365 2.021 3.594 3.063.021 0 .042-.016.063-.047s.042-.047.063-.047a89.754 89.754 0 0 0-.813-1.531c0-.021.031-.063.094-.125l.125-.125h1.281c.021-.021.198-.115.531-.281-.708-2.417-2-4.5-3.875-6.25z"/>
    </symbol>
    <symbol id="icon-hand-ok" viewBox="0 0 32 32">
      <path fill="#fff" style="fill:var(--color1, #fff)" d="M0 30.578h5.818V13.085H0v17.493zm32-16.036a2.92 2.92 0 0 0-2.909-2.916h-9.178l1.382-6.662.044-.466c0-.598-.247-1.152-.64-1.545l-1.542-1.531-9.571 9.607a2.855 2.855 0 0 0-.858 2.055v14.578a2.92 2.92 0 0 0 2.909 2.916h13.091c1.207 0 2.24-.729 2.676-1.779l4.393-10.277c.131-.335.204-.685.204-1.064v-2.916z"/>
    </symbol>
    <symbol id="icon-arrow-right-long" viewBox="0 0 32 32">
      <path d="M30.859 16.73a1.033 1.033 0 0 0 0-1.46L24.29 8.701a1.033 1.033 0 0 0-1.46 1.46L28.669 16l-5.839 5.839a1.033 1.033 0 0 0 1.46 1.46l6.569-6.569zm-29.99.302h29.26v-2.065H.869v2.065z"/>
    </symbol>
  </defs>
</svg>